<svg width="730" height="321" viewBox="0 0 730 321" fill="none" xmlns="http://www.w3.org/2000/svg">
<path d="M152.353 142.215C161.207 103.917 82.3529 60.9494 82.3529 60.9494V0C82.3529 0 211.578 70.4912 207.336 142.215C204 198.624 125.323 241.662 125.323 241.662L0 316.937V255.987L93.9922 201.537C93.9922 201.537 145.596 171.443 152.353 142.215Z" fill="black"/>
<path d="M57.6471 0L0 33.7415V226.159L82.3529 178.785C82.3529 178.785 70 174.722 61.7647 162.532C53.5294 150.342 57.6471 0 57.6471 0Z" fill="black"/>
<path d="M210 282.699V223.423C210 223.423 163.96 249.345 133.616 267.196L41.1765 321H142.831L210 282.699Z" fill="black"/>
<path d="M240.93 33.2H289.35C296.25 33.2 302.4 34.64 307.8 37.52C313.2 40.4 317.46 44.57 320.58 50.03C323.76 55.43 325.35 61.88 325.35 69.38C325.35 76.88 324 83.03 321.3 87.83C318.66 92.57 315.48 96.14 311.76 98.54C308.04 100.88 304.59 102.29 301.41 102.77L330.3 152H300.06L274.32 104.84H267.84V152H240.93V33.2ZM267.84 86.21H279.72C284.52 86.21 288.72 85.04 292.32 82.7C295.92 80.36 297.72 76.22 297.72 70.28C297.72 64.34 295.95 60.23 292.41 57.95C288.87 55.61 284.7 54.44 279.9 54.44H267.84V86.21ZM340.793 33.2H416.663V56.78H367.613V80.99H416.213V103.85H367.613V128.42H416.663V152H340.793V33.2ZM495.626 152H465.206L422.906 33.2H453.236L480.416 117.71L507.596 33.2H537.926L495.626 152ZM566.359 33.2H593.089L639.979 152H611.269L602.629 128.15H556.909L548.179 152H519.379L566.359 33.2ZM565.909 104.57H593.719L579.949 65.6H579.679L565.909 104.57Z" fill="black"/>
<path d="M242.32 180.4H259.2V270.96H299.76V286H242.32V180.4ZM362.6 180.4H379.8L419.64 286H401.72L393 261.84H349.48L340.68 286H322.68L362.6 180.4ZM354.92 246.88H387.56L371.32 200.88H371.08L354.92 246.88ZM443.076 180.4H474.596C480.41 180.4 485.85 181.2 490.916 182.8C496.036 184.347 500.17 186.987 503.316 190.72C506.463 194.4 508.036 199.493 508.036 206C508.036 210.373 507.183 214.32 505.476 217.84C503.823 221.36 501.716 224.213 499.156 226.4C496.596 228.587 493.983 229.92 491.316 230.4C493.556 230.613 495.903 231.307 498.356 232.48C500.863 233.6 503.21 235.2 505.396 237.28C507.636 239.36 509.45 241.973 510.836 245.12C512.223 248.267 512.916 251.947 512.916 256.16C512.916 262.027 511.69 267.2 509.236 271.68C506.783 276.16 503.13 279.68 498.276 282.24C493.423 284.747 487.343 286 480.036 286H443.076V180.4ZM459.876 272.16H477.316C481.903 272.16 485.476 271.387 488.036 269.84C490.65 268.293 492.516 266.24 493.636 263.68C494.756 261.067 495.316 258.213 495.316 255.12C495.316 250.053 493.69 246.08 490.436 243.2C487.183 240.32 482.516 238.88 476.436 238.88H459.876V272.16ZM459.876 225.28H475.076C478.756 225.28 481.796 224.533 484.196 223.04C486.596 221.493 488.383 219.467 489.556 216.96C490.73 214.4 491.316 211.733 491.316 208.96C491.316 203.36 489.69 199.52 486.436 197.44C483.183 195.307 478.836 194.24 473.396 194.24H459.876V225.28ZM576.762 178.48C582.949 178.48 588.309 179.2 592.842 180.64C597.429 182.027 601.056 183.52 603.722 185.12C606.389 186.667 607.989 187.68 608.522 188.16L600.122 201.84C599.322 201.147 597.882 200.187 595.802 198.96C593.776 197.68 591.269 196.533 588.282 195.52C585.349 194.507 582.069 194 578.442 194C573.002 194 568.682 195.067 565.482 197.2C562.282 199.28 560.682 202.32 560.682 206.32C560.682 208.987 561.536 211.333 563.242 213.36C564.949 215.387 567.376 217.28 570.522 219.04C573.722 220.8 577.536 222.587 581.962 224.4C585.696 225.947 589.322 227.707 592.842 229.68C596.416 231.653 599.616 233.973 602.442 236.64C605.269 239.307 607.509 242.4 609.162 245.92C610.869 249.44 611.722 253.493 611.722 258.08C611.722 262.88 610.736 267.147 608.762 270.88C606.789 274.56 604.069 277.68 600.602 280.24C597.136 282.747 593.136 284.667 588.602 286C584.122 287.28 579.322 287.92 574.202 287.92C567.482 287.92 561.429 287.12 556.042 285.52C550.709 283.867 546.389 282.16 543.082 280.4C539.776 278.587 537.856 277.413 537.322 276.88L546.202 262.56C546.842 263.093 548.016 263.893 549.722 264.96C551.482 265.973 553.642 267.067 556.202 268.24C558.762 269.36 561.589 270.32 564.682 271.12C567.829 271.867 571.082 272.24 574.442 272.24C580.896 272.24 585.776 270.853 589.082 268.08C592.389 265.253 594.042 261.627 594.042 257.2C594.042 253.84 592.976 250.933 590.842 248.48C588.762 245.973 585.882 243.707 582.202 241.68C578.576 239.653 574.442 237.653 569.802 235.68C565.056 233.6 560.656 231.253 556.602 228.64C552.602 226.027 549.376 222.853 546.922 219.12C544.469 215.333 543.242 210.747 543.242 205.36C543.242 199.973 544.762 195.28 547.802 191.28C550.896 187.227 554.976 184.08 560.042 181.84C565.109 179.6 570.682 178.48 576.762 178.48Z" fill="black"/>
</svg>
