<svg width="162" height="162" viewBox="0 0 162 162" fill="none" xmlns="http://www.w3.org/2000/svg">
<circle cx="81" cy="81" r="81" fill="#F43239"/>
<path d="M94.0784 76.4304C96.5239 65.8119 74.7451 53.8987 74.7451 53.8987V37C74.7451 37 110.436 56.5443 109.264 76.4304C108.343 92.0702 86.613 104.003 86.613 104.003L52 124.873V107.975L77.9597 92.8778C77.9597 92.8778 92.2122 84.5341 94.0784 76.4304Z" fill="white"/>
<path d="M67.9216 37L52 46.3551V99.7045L74.7451 86.5696C74.7451 86.5696 71.3333 85.443 69.0588 82.0633C66.7843 78.6835 67.9216 37 67.9216 37Z" fill="white"/>
<path d="M110 115.381V98.946C110 98.946 97.2842 106.133 88.9036 111.082L63.3725 126H91.4486L110 115.381Z" fill="white"/>
</svg>
